<svg xmlns="http://www.w3.org/2000/svg" width="256" height="256" viewBox="0 0 100 100"><rect width="100" height="100" rx="20" fill="#24ff70"></rect><path d="M50.41 76.74L41.38 76.74Q40.27 76.74 39.68 76.15Q39.10 75.56 38.75 75.15L38.75 75.15L36.41 72.05Q33.72 72.94 30.27 72.94L30.27 72.94Q23.92 72.94 19.26 70.87Q14.60 68.80 11.95 64.63Q9.29 60.45 9.08 54.17L9.08 54.17Q9.01 51.21 9.01 48.21Q9.01 45.20 9.08 42.24L9.08 42.24Q9.29 36.03 11.98 31.78Q14.67 27.54 19.36 25.40Q24.06 23.26 30.27 23.26L30.27 23.26Q36.54 23.26 41.24 25.40Q45.93 27.54 48.65 31.78Q51.38 36.03 51.52 42.24L51.52 42.24Q51.66 45.20 51.66 48.21Q51.66 51.21 51.52 54.17L51.52 54.17Q51.17 62.73 46.55 67.42L46.55 67.42L51.59 74.60Q51.66 74.67 51.72 74.87Q51.79 75.08 51.79 75.29L51.79 75.29Q51.86 75.84 51.45 76.29Q51.03 76.74 50.41 76.74L50.41 76.74ZM30.27 63.01L30.27 63.01Q33.92 63.01 36.23 60.80Q38.55 58.59 38.68 53.76L38.68 53.76Q38.82 50.72 38.82 48.03Q38.82 45.34 38.68 42.44L38.68 42.44Q38.61 39.20 37.51 37.17Q36.41 35.13 34.58 34.16Q32.75 33.20 30.27 33.20L30.27 33.20Q27.92 33.20 26.06 34.16Q24.19 35.13 23.12 37.17Q22.05 39.20 21.92 42.44L21.92 42.44Q21.85 45.34 21.85 48.03Q21.85 50.72 21.92 53.76L21.92 53.76Q22.12 58.59 24.40 60.80Q26.68 63.01 30.27 63.01ZM73.74 72.94L73.74 72.94Q69.25 72.94 66.11 71.94Q62.97 70.94 61.01 69.49Q59.04 68.04 58.07 66.49Q57.11 64.94 57.04 63.77L57.04 63.77Q56.97 63.01 57.52 62.52Q58.07 62.04 58.69 62.04L58.69 62.04L66.56 62.04Q66.77 62.04 66.94 62.11Q67.11 62.18 67.32 62.39L67.32 62.39Q68.22 62.87 69.11 63.59Q70.01 64.32 71.18 64.87Q72.36 65.42 74.01 65.42L74.01 65.42Q75.94 65.42 77.25 64.63Q78.57 63.83 78.57 62.39L78.57 62.39Q78.57 61.28 77.95 60.56Q77.32 59.83 75.43 59.14Q73.53 58.45 69.73 57.76L69.73 57.76Q66.15 56.93 63.45 55.59Q60.76 54.24 59.31 52.07Q57.87 49.90 57.87 46.79L57.87 46.79Q57.87 44.03 59.66 41.48Q61.45 38.93 64.90 37.30Q68.35 35.68 73.46 35.68L73.46 35.68Q77.39 35.68 80.36 36.61Q83.33 37.55 85.33 38.99Q87.33 40.44 88.36 41.96Q89.40 43.48 89.47 44.72L89.47 44.72Q89.54 45.41 89.05 45.93Q88.57 46.45 87.95 46.45L87.95 46.45L80.77 46.45Q80.50 46.45 80.22 46.34Q79.95 46.24 79.74 46.10L79.74 46.10Q78.91 45.69 78.08 45.00Q77.25 44.31 76.15 43.76Q75.05 43.20 73.39 43.20L73.39 43.20Q71.53 43.20 70.49 44.03Q69.46 44.86 69.46 46.17L69.46 46.17Q69.46 47.07 70.04 47.83Q70.63 48.59 72.46 49.21Q74.29 49.83 78.15 50.59L78.15 50.59Q82.91 51.35 85.74 53.04Q88.57 54.73 89.78 56.97Q90.99 59.21 90.99 61.70L90.99 61.70Q90.99 65.01 88.99 67.56Q86.98 70.11 83.15 71.53Q79.33 72.94 73.74 72.94Z" fill="#fff"></path></svg>