<svg xmlns="http://www.w3.org/2000/svg" width="728.602" height="728.602" fill="#1a1a1a"><path d="M364.301 0a364.3 364.3 0 0 0-4.814.031c-8.299 18.615-16.406 38.599-28.436 54.291a311.757 311.757 0 0 0-84.537 21.328C228.48 67.543 211.863 53.8 195.727 41.35a364.3 364.3 0 0 0-92.406 68.777c7.295 19.031 15.691 38.894 18.281 58.496a311.757 311.757 0 0 0-44.695 74.859c-18.484 7.019-39.952 9.051-60.166 11.658A364.3 364.3 0 0 0 .031 369.115c18.615 8.299 38.599 16.406 54.291 28.436a311.757 311.757 0 0 0 21.328 84.537c-8.107 18.034-21.851 34.651-34.301 50.787a364.3 364.3 0 0 0 68.777 92.406c19.031-7.295 38.894-15.691 58.496-18.281a311.757 311.757 0 0 0 74.859 44.695c7.019 18.484 9.051 39.953 11.658 60.166a364.3 364.3 0 0 0 113.975 16.707c8.299-18.615 16.406-38.597 28.436-54.289a311.757 311.757 0 0 0 84.537-21.328c18.034 8.107 34.651 21.851 50.787 34.301a364.3 364.3 0 0 0 92.406-68.777c-7.295-19.031-15.691-38.894-18.281-58.496a311.757 311.757 0 0 0 44.695-74.859c18.484-7.019 39.952-9.051 60.166-11.658a364.3 364.3 0 0 0 16.709-113.975c-18.615-8.299-38.599-16.406-54.291-28.436a311.757 311.757 0 0 0-21.328-84.537c8.107-18.034 21.851-34.651 34.301-50.787a364.3 364.3 0 0 0-68.777-92.406c-19.031 7.295-38.894 15.691-58.496 18.281a311.757 311.757 0 0 0-74.859-44.695c-7.019-18.484-9.051-39.954-11.658-60.168A364.3 364.3 0 0 0 364.301 0zm0 146.389a217.912 217.912 0 1 1 0 435.824 217.912 217.912 0 1 1 0-435.824z"/><path d="M555.638 489.485l-52.014-32.282s-57.924 34.521-89.364 73.133l21.838 57.473z"/></svg>
