<?xml version="1.0" encoding="UTF-8" standalone="no"?>
<svg
   width="256"
   height="256"
   viewBox="0 0 100 100"
   version="1.1"
   id="svg1"
   xmlns="http://www.w3.org/2000/svg"
   xmlns:svg="http://www.w3.org/2000/svg">
  <defs
     id="defs1" />
  <rect
     width="100"
     height="78.125"
     fill="#24ff70"
     id="rect1"
     style="fill:#2db45c;fill-opacity:1"
     x="0"
     y="10.9375"
     rx="15.625" />
  <path
     d="m 50.41,76.74 h -9.03 q -1.11,0 -1.7,-0.59 -0.58,-0.59 -0.93,-1 v 0 l -2.34,-3.1 q -2.69,0.89 -6.14,0.89 v 0 q -6.35,0 -11.01,-2.07 Q 14.6,68.8 11.95,64.63 9.29,60.45 9.08,54.17 v 0 q -0.07,-2.96 -0.07,-5.96 0,-3.01 0.07,-5.97 v 0 q 0.21,-6.21 2.9,-10.46 2.69,-4.24 7.38,-6.38 4.7,-2.14 10.91,-2.14 v 0 q 6.27,0 10.97,2.14 4.69,2.14 7.41,6.38 2.73,4.25 2.87,10.46 v 0 q 0.14,2.96 0.14,5.97 0,3 -0.14,5.96 v 0 q -0.35,8.56 -4.97,13.25 v 0 l 5.04,7.18 q 0.07,0.07 0.13,0.27 0.07,0.21 0.07,0.42 v 0 q 0.07,0.55 -0.34,1 -0.42,0.45 -1.04,0.45 z M 30.27,63.01 v 0 q 3.65,0 5.96,-2.21 2.32,-2.21 2.45,-7.04 v 0 q 0.14,-3.04 0.14,-5.73 0,-2.69 -0.14,-5.59 v 0 Q 38.61,39.2 37.51,37.17 36.41,35.13 34.58,34.16 32.75,33.2 30.27,33.2 v 0 q -2.35,0 -4.21,0.96 -1.87,0.97 -2.94,3.01 -1.07,2.03 -1.2,5.27 v 0 q -0.07,2.9 -0.07,5.59 0,2.69 0.07,5.73 v 0 q 0.2,4.83 2.48,7.04 2.28,2.21 5.87,2.21 z m 43.47,9.93 v 0 q -4.49,0 -7.63,-1 -3.14,-1 -5.1,-2.45 -1.97,-1.45 -2.94,-3 -0.96,-1.55 -1.03,-2.72 v 0 q -0.07,-0.76 0.48,-1.25 0.55,-0.48 1.17,-0.48 v 0 h 7.87 q 0.21,0 0.38,0.07 0.17,0.07 0.38,0.28 v 0 q 0.9,0.48 1.79,1.2 0.9,0.73 2.07,1.28 1.18,0.55 2.83,0.55 v 0 q 1.93,0 3.24,-0.79 1.32,-0.8 1.32,-2.24 v 0 q 0,-1.11 -0.62,-1.83 -0.63,-0.73 -2.52,-1.42 -1.9,-0.69 -5.7,-1.38 v 0 Q 66.15,56.93 63.45,55.59 60.76,54.24 59.31,52.07 57.87,49.9 57.87,46.79 v 0 q 0,-2.76 1.79,-5.31 1.79,-2.55 5.24,-4.18 3.45,-1.62 8.56,-1.62 v 0 q 3.93,0 6.9,0.93 2.97,0.94 4.97,2.38 2,1.45 3.03,2.97 1.04,1.52 1.11,2.76 v 0 q 0.07,0.69 -0.42,1.21 -0.48,0.52 -1.1,0.52 v 0 h -7.18 q -0.27,0 -0.55,-0.11 -0.27,-0.1 -0.48,-0.24 v 0 Q 78.91,45.69 78.08,45 77.25,44.31 76.15,43.76 75.05,43.2 73.39,43.2 v 0 q -1.86,0 -2.9,0.83 -1.03,0.83 -1.03,2.14 v 0 q 0,0.9 0.58,1.66 0.59,0.76 2.42,1.38 1.83,0.62 5.69,1.38 v 0 q 4.76,0.76 7.59,2.45 2.83,1.69 4.04,3.93 1.21,2.24 1.21,4.73 v 0 q 0,3.31 -2,5.86 -2.01,2.55 -5.84,3.97 -3.82,1.41 -9.41,1.41 z"
     fill="#ffffff"
     id="path1" />
</svg>
