<svg width="989.93" height="989.93" xmlns="http://www.w3.org/2000/svg"><defs><linearGradient id="a" x1="163.35" y1="716.02" x2="826.56" y2="376.72" gradientUnits="userSpaceOnUse" gradientTransform="translate(-45.117 -40.55)"><stop offset="0" stop-color="#00a2ff" style="stop-color:#00a0f6;stop-opacity:1"/><stop offset="1" stop-color="#00ffe4" style="stop-color:#00e2ca;stop-opacity:1"/></linearGradient></defs><path d="m494.883 989.95 8.9-.06c34 .6 100.62-3 172-40.4 72.34-37.94 111-90.44 127.94-114 53.22-73.88 65.47-145.04 67.83-160.04 11.76-74.4-3.6-131.87-15-174.56-18.69-69.89-47-117.89-75.11-164.72-36.7-61.17-59.82-83.93-124.84-168.34-29.33-38.1-72.19-95.22-122.24-167.83v143.5c13.36 20.09 34.67 51.48 62.16 89.09 66.36 90.86 92.67 113.86 128.96 175.6 27.47 46.71 45.64 77.6 57 123.8 6.88 28.07 31.86 129.83-25.39 232.58-10.86 19.49-58.38 99.51-157.46 134.15-41.41 14.48-80.44 16.45-104.75 15.73-24.31.76-63.34-1.21-104.73-15.69-99.08-34.64-146.6-114.66-157.46-134.15-57.25-102.75-32.27-204.51-25.39-232.58 11.34-46.2 29.51-77.09 57-123.8 36.27-61.78 62.58-84.78 128.96-175.64 27.49-37.61 48.8-69 62.16-89.09V.02c-50.05 72.61-92.91 129.73-122.24 167.83-65 84.41-88.14 107.17-124.84 168.34-28.09 46.83-56.42 94.83-75.11 164.72-11.42 42.69-26.78 100.16-15 174.56 2.36 14.94 14.61 86.14 67.86 160.06 16.94 23.52 55.6 76 127.94 114 71.35 37.42 137.94 41 172 40.4z" style="fill:url(#a)"/></svg>
