<svg xmlns="http://www.w3.org/2000/svg" viewBox="1589.1 -0.1 410.9 383.1" xml:space="preserve"><path fill="#FF4040" d="m1794.4 383-205.3-78.4v-31.4l205.3 18.3 205.5-18.3v31.4z"/><path fill="#AFA137" d="m1794.4 351.4-205.3-78.2s13.6-5.3 16.2-6.2c12.2-4.5 25-8.3 36.8-13.4 24.5-10.9 51.4-17.8 78.2-18.2 15.4-.2 29.8 4.5 44.8 2.2 17.4-2.9 34.1-9.4 51.6-12.9 31.6-6 62.3 2.2 91.5 13.8 30 11.8 59.2 22.3 89.3 33.8.9.4 1.6.5 2.5.9l-205.6 78.2z"/><path fill="#C6ADAC" d="M1656.3 277.2c-2.5-57 55.2-87.7 97.8-111.1 37.2-20.3 83.7-46.8 74.1-96.4-2-10.3-17.8-6-15.8 4.4 4.4 22.7-8.5 39.9-25.8 53-20.3 15.4-43.7 26.3-65.9 38.8-40.8 23.2-83.1 59.9-81 111.3.8 10.5 17.1 10.5 16.6 0z"/><path fill="#C6ADAC" d="M1728 183.7c56.6 11.8 116.4-5.1 158.3-45 7.6-7.3-4-18.9-11.6-11.6-37.4 35.8-91.7 51.4-142.3 40.8-10.4-2-14.8 13.6-4.4 15.8z"/><path fill="#68751C" d="M1727.8 64.8c14.9 3.6 40.1-13.6 51.4-19.1 14.5-7.1 29.6-12.5 44.3-19.1 5.6-2.5 24-8.3 24.1-16.5.4-10.2-19.1-10.7-25.4-10-12.9 1.3-25.4 5.3-37.8 8.9-12.7 3.8-25 8.9-36.8 15.2-8.9 4.7-21.1 13.1-26.3 21.8-3.3 5.3-3.1 13.1 2 16.7 1.2 1 2.9 1.7 4.5 2.1zM1819.1 37.2c2.5-1.5 5.1-2.7 7.6-4 21.1-10 45.4-18.2 69.3-20 20.9-1.6 43.9-5.4 64.6.2 10.7 2.9 22.5 13.3 16.9 23.2-4.2 7.4-21.2 17.4-28.7 22.9-27.4 19.4-65.7 28-100.7 29.8-25.4 1.3-67.3-13.3-44.1-40.7 4-4.5 9.3-8.1 15.1-11.4z"/><path fill="#68751C" d="M1958.9 60.1c5.8.2 12.5 1.6 15.2 6.9 2.2 4.4.5 9.6-2.5 13.3-3.3 3.6-7.6 5.6-12.2 7.4-22.5 9.4-46.6 15.1-71 16.7-6.7.4-13.8.5-20.3-1.6s-12.3-7.1-14.2-13.6c-4-15.1 29-20 37.9-21.6s17.8-2.7 26.7-3.1c13.5-1 26.6-5 40.4-4.4zM1955.6 158.8c-8.9-22-62.4 2.2-74.6 10-4.5 2.9-9.3 7.3-8.3 12.5.9 5.6 7.6 8.2 13.4 8.9 14.1 1.8 80-5.4 69.5-31.4zM1787.5 87.7c-2.2 14.5-21.8 30.5-34.9 35-12.7 4.5-33.9-4.9-26.1-20.3 6.9-13.4 41-37.4 55.9-27.6 4.2 2.7 5.8 8.2 5.1 12.9zM1825.1 159.9c20.9 2.5 42.3-.2 61.9-7.6 4.4-1.6 8.9-3.8 10.7-8.2 1.3-3.3.4-7.3-2.2-9.6-2.5-2.4-6.5-3.1-9.6-1.6-5.8-6.4-16-5.8-24.5-4.2-13.4 2.7-26.7 7.6-38.8 14-4.4 2.4-9.3 6.4-8 11.1 1.2 4.1 6.3 5.6 10.5 6.1z"/><path fill="#68751C" d="M1849.4 143c27.6 6.2 57.9-1.8 81.5-17.1 3.1-2 6.5-5.1 6-8.9-.7-4.5-6.5-6-11.3-5.8-26.9.4-54.1 7.1-77.5 20.7-2.7 1.5-5.6 4-4.9 6.9.8 2.6 3.7 3.7 6.2 4.2zM1711.1 106.4c2.5-3.1 4.7-6.9 3.6-10.5-5.1-20.1-32.5 6-39 12-8.3 7.6-8 14.3 5.6 14.3 11.3-.2 23.1-7.7 29.8-15.8z"/></svg>
