<svg width="266" height="266" xmlns="http://www.w3.org/2000/svg"><g transform="translate(-208.6 -332.1)"><circle cx="341.4" cy="465.2" r="122.9" style="fill:#ffbc00"/><path d="M443.9 314.6h2.35l-1.495 1.495h-.854V314.6m-173 3.631v1.709l-5.554 6.836h-.855l-.854-5.34c3.275-2.136 5.696-3.204 7.263-3.204m202.5 2.35c4.842 0 7.547 3.062 8.117 9.185l-4.06 28.84h1.496l3.204-2.136h.854v.64c-4.415 2.707-8.687 10.11-12.82 22.22-1.567 10.4-4.2 20.01-7.904 28.84-3.276 9.115-4.913 17.52-4.913 25.21l-6.195 15.17c0 1.283 2.35 2.564 7.05 3.846-.855 2.99-2.137 4.486-3.846 4.486v.854h1.495v.641c0 1.567-2.42 2.35-7.263 2.35l.855.854v2.991h-1.495c.996 2.991 3.133 4.486 6.408 4.486v1.495h-6.408v.855c2.136 0 3.204 1.282 3.204 3.845l-8.972 2.99.854.855v.641c0 .997-1.068 1.495-3.204 1.495v.854c2.706 0 4.058.499 4.059 1.495-3.845 1.282-8.901 7.62-15.17 19.01-6.408 10.11-11.96 15.17-16.66 15.17h-1.709c-3.56-2.279-6.48-9.826-8.758-22.64-9.114-19.51-13.67-30.97-13.67-34.39 0-8.829-2.919-18.23-8.758-28.2-1.567-4.415-2.635-9.968-3.204-16.66l-3.845-.854c-9.684 14.67-14.74 26.13-15.17 34.39-2.706 4.842-4.842 10.68-6.408 17.52 5.839 1.567 8.758 3.062 8.758 4.486v.854c-4.557-.57-7.761-1.638-9.612-3.204-1.994 3.845-4.628 14.53-7.904 32.04-2.563 8.117-5.768 12.18-9.612 12.18-10.82-3.56-19.87-9.399-27.13-17.52-1.139 0-2.991-4.059-5.554-12.18-1.566 0-2.635-4.059-3.204-12.18-5.411-11.53-9.114-24.71-11.11-39.52v-22.22h-.854l-3.845.855v-.855c0-.996 1.282-1.495 3.845-1.495l-.855-12.82v-10.04l-6.195-32.04v-13.67c2.706-8.544 7.405-12.82 14.1-12.82h44.86v1.495c-3.56.143-5.98.926-7.263 2.35-2.706-1.566-5.34-2.35-7.904-2.35h-8.758l-4.913.641-.854-.64h-.641l-6.408.64-3.204-.64-2.35.64-2.563-.64c10.4 11.39 16.52 21.01 18.37 28.84h7.263v1.494h-5.554v1.71c2.136 6.55 3.703 9.825 4.699 9.825h1.709l3.845-.854.854.854.855-.854.854.854v.641c-2.848 1.71-4.77 4.06-5.767 7.05h-.64v1.494h1.494c1.994 23.78 5.696 41.8 11.11 54.04l3.204 2.136h1.71c2.135 0 6.621-8.33 13.46-24.99 4.414-7.547 7.618-14.17 9.611-19.87l-.854-2.35c4.415-5.554 8.972-8.33 13.67-8.33h1.495c2.99 0 5.127 1.566 6.408 4.698 3.987 4.7 7.191 11.75 9.612 21.15l11.96 22.22c1.566 1.567 2.35 3.347 2.35 5.34 4.414 8.402 8.402 13.96 11.96 16.66h2.563c2.99 0 6.978-10.4 11.96-31.19.854 0 3.204-5.554 7.049-16.66v-.854l-13.46-1.495-3.204.854h-4.059v-1.709l8.117-.64h15.81c6.123-18.37 11.75-32.61 16.88-42.72 1.709-20.79 4.058-31.19 7.049-31.19l9.612-3.846m-45.5 2.35c-.855 1.994-2.706 2.991-5.554 2.991v-1.495l5.554-1.495m-80.53 3.845h21.57v1.495l-4.913.641-4.699-.64-4.059 1.494-1.495-1.495h-6.408v-1.495m-112.4 2.991h2.35l1.495 1.495v.855l-4.699 4.486v3.845h-1.709v-2.35l.854-.641v-.854l-4.059-3.845c.997-1.994 2.92-2.99 5.767-2.991m157 9.185h2.35v.64c0 .997-.783 1.495-2.35 1.495l-.854.855v.854l-2.35-.854v-1.495l3.204-1.495m-11.96 8.33v.855c0 1.14-3.418 2.35-10.25 3.631v-1.495l4.699-2.136.854.641h.641l4.06-1.495m-139.5 7.69v.64l-1.71 1.496-.64-.641v-.854l.64-.641h1.71m116.4 0v.64c-2.992 2.28-7.833 4.345-14.53 6.196v-1.495c1.138 0 1.708-.784 1.708-2.35l12.82-2.991m40.59 7.476.855.854v.64l-1.495 1.71h-.855l-1.709-1.71v-.64l3.204-.854m29.48.854h.855v.64l-1.495 1.71h-.855v-.855l1.495-1.495m-13.46 10.68 3.204 2.136c-.57 1.567-2.136 2.35-4.699 2.35l-1.709-2.35c0-.712 1.068-1.424 3.204-2.136m19.22 9.826.641.855v.64l-.64.855h-1.71v-.854l1.71-1.495m-30.33 7.69v.64l-4.06 3.204h-2.35v-.854c0-1.282 2.136-2.278 6.408-2.991m-132.4 29.69h.855v.64c-2.136 4.7-3.987 7.549-5.554 8.545h-1.71v-3.204l6.409-5.981m104.5 35.67h.854v1.495l-6.408 3.204-.854-.855v-1.495l6.408-2.35m-87.79 10.04h1.495l2.563 8.331h-1.71l-2.35-7.69v-.64m85.44 9.826h.641l2.563 2.35-.854.64h-.854l-1.495-2.136v-.854" transform="scale(.9156 1.092)" style="fill:#fff"/></g></svg>
